<svg width="290" height="288" viewBox="0 0 290 288" fill="none" xmlns="http://www.w3.org/2000/svg">
<g clip-path="url(#clip0_409_3934)">
<rect width="290" height="288" fill="#E3E3E3"/>
<path d="M-0.317139 -1.31738L73 71.9998M73 71.9998L146.317 -1.31738M73 71.9998L146.317 145.317M73 71.9998L-0.317139 145.317" stroke="#8D8D8D" stroke-width="6"/>
<rect width="146.634" height="38" transform="translate(-0.317139 53)" fill="#E3E3E3"/>
<path d="M16.6754 68V56.3636H21.3345C22.1906 56.3636 22.9046 56.4905 23.4766 56.7443C24.0485 56.9981 24.4785 57.3504 24.7663 57.8011C25.0542 58.2481 25.1982 58.7633 25.1982 59.3466C25.1982 59.8011 25.1072 60.2008 24.9254 60.5455C24.7436 60.8864 24.4936 61.1667 24.1754 61.3864C23.861 61.6023 23.5012 61.7557 23.0959 61.8466V61.9602C23.5391 61.9792 23.9538 62.1042 24.3402 62.3352C24.7304 62.5663 25.0466 62.8902 25.2891 63.3068C25.5315 63.7197 25.6527 64.2121 25.6527 64.7841C25.6527 65.4015 25.4993 65.9527 25.1925 66.4375C24.8894 66.9186 24.4406 67.2992 23.8459 67.5795C23.2512 67.8598 22.5182 68 21.647 68H16.6754ZM19.1357 65.9886H21.1413C21.8269 65.9886 22.3269 65.858 22.6413 65.5966C22.9557 65.3314 23.1129 64.9792 23.1129 64.5398C23.1129 64.2178 23.0353 63.9337 22.88 63.6875C22.7247 63.4413 22.5031 63.2481 22.2152 63.108C21.9311 62.9678 21.5921 62.8977 21.1982 62.8977H19.1357V65.9886ZM19.1357 61.233H20.9595C21.2966 61.233 21.5959 61.1742 21.8572 61.0568C22.1224 60.9356 22.3307 60.7652 22.4822 60.5455C22.6375 60.3258 22.7152 60.0625 22.7152 59.7557C22.7152 59.3352 22.5656 58.9962 22.2663 58.7386C21.9709 58.4811 21.5504 58.3523 21.005 58.3523H19.1357V61.233ZM29.2592 68H26.6229L30.6399 56.3636H33.8104L37.8217 68H35.1854L32.2706 59.0227H32.1797L29.2592 68ZM29.0945 63.4261H35.3217V65.3466H29.0945V63.4261ZM48.9425 60.4375H46.4538C46.4084 60.1155 46.3156 59.8295 46.1754 59.5795C46.0353 59.3258 45.8554 59.1098 45.6357 58.9318C45.416 58.7538 45.1622 58.6174 44.8743 58.5227C44.5902 58.428 44.2815 58.3807 43.9482 58.3807C43.3459 58.3807 42.8213 58.5303 42.3743 58.8295C41.9273 59.125 41.5807 59.5568 41.3345 60.125C41.0883 60.6894 40.9652 61.375 40.9652 62.1818C40.9652 63.0114 41.0883 63.7083 41.3345 64.2727C41.5845 64.8371 41.933 65.2633 42.38 65.5511C42.8269 65.839 43.344 65.983 43.9311 65.983C44.2607 65.983 44.5656 65.9394 44.8459 65.8523C45.13 65.7652 45.3819 65.6383 45.6016 65.4716C45.8213 65.3011 46.0031 65.0947 46.147 64.8523C46.2947 64.6098 46.397 64.3333 46.4538 64.0227L48.9425 64.0341C48.8781 64.5682 48.7171 65.0833 48.4595 65.5795C48.2057 66.072 47.8629 66.5133 47.4311 66.9034C47.0031 67.2898 46.4917 67.5966 45.897 67.8239C45.3061 68.0473 44.6375 68.1591 43.8913 68.1591C42.8535 68.1591 41.9254 67.9242 41.1072 67.4545C40.2929 66.9848 39.6489 66.3049 39.1754 65.4148C38.7057 64.5246 38.4709 63.447 38.4709 62.1818C38.4709 60.9129 38.7095 59.8333 39.1868 58.9432C39.6641 58.053 40.3118 57.375 41.13 56.9091C41.9482 56.4394 42.8686 56.2045 43.8913 56.2045C44.5656 56.2045 45.1906 56.2992 45.7663 56.4886C46.3459 56.678 46.8591 56.9545 47.3061 57.3182C47.7531 57.678 48.1167 58.1193 48.397 58.642C48.6811 59.1648 48.8629 59.7633 48.9425 60.4375ZM50.7067 68V56.3636H53.1669V61.4943H53.3203L57.5078 56.3636H60.4567L56.1385 61.5739L60.5078 68H57.5646L54.3771 63.2159L53.1669 64.6932V68H50.7067ZM68.7976 60.125C68.718 59.8485 68.6063 59.6042 68.4624 59.392C68.3184 59.1761 68.1423 58.9943 67.9339 58.8466C67.7294 58.6951 67.4946 58.5795 67.2294 58.5C66.968 58.4205 66.6783 58.3807 66.3601 58.3807C65.7654 58.3807 65.2427 58.5284 64.7919 58.8239C64.3449 59.1193 63.9964 59.5492 63.7464 60.1136C63.4964 60.6742 63.3714 61.3598 63.3714 62.1705C63.3714 62.9811 63.4946 63.6705 63.7408 64.2386C63.987 64.8068 64.3355 65.2405 64.7862 65.5398C65.237 65.8352 65.7692 65.983 66.3828 65.983C66.9396 65.983 67.415 65.8845 67.8089 65.6875C68.2067 65.4867 68.5097 65.2045 68.718 64.8409C68.9302 64.4773 69.0362 64.0473 69.0362 63.5511L69.5362 63.625H66.5362V61.7727H71.4055V63.2386C71.4055 64.2614 71.1896 65.1402 70.7578 65.875C70.326 66.6061 69.7313 67.1705 68.9737 67.5682C68.2161 67.9621 67.3487 68.1591 66.3714 68.1591C65.2805 68.1591 64.3222 67.9186 63.4964 67.4375C62.6707 66.9527 62.0268 66.2652 61.5646 65.375C61.1063 64.4811 60.8771 63.4205 60.8771 62.1932C60.8771 61.25 61.0135 60.4091 61.2862 59.6705C61.5627 58.928 61.9491 58.2992 62.4453 57.7841C62.9415 57.2689 63.5192 56.8769 64.1783 56.608C64.8374 56.339 65.5514 56.2045 66.3203 56.2045C66.9794 56.2045 67.593 56.3011 68.1612 56.4943C68.7294 56.6837 69.2332 56.9527 69.6726 57.3011C70.1158 57.6496 70.4775 58.0644 70.7578 58.5455C71.0381 59.0227 71.218 59.5492 71.2976 60.125H68.7976ZM73.2536 68V56.3636H77.8445C78.7232 56.3636 79.4732 56.5208 80.0945 56.8352C80.7195 57.1458 81.1948 57.5871 81.5206 58.1591C81.8501 58.7273 82.0149 59.3958 82.0149 60.1648C82.0149 60.9375 81.8482 61.6023 81.5149 62.1591C81.1816 62.7121 80.6986 63.1364 80.0661 63.4318C79.4373 63.7273 78.6759 63.875 77.782 63.875H74.7081V61.8977H77.3842C77.8539 61.8977 78.2441 61.8333 78.5547 61.7045C78.8653 61.5758 79.0964 61.3826 79.2479 61.125C79.4032 60.8674 79.4808 60.5473 79.4808 60.1648C79.4808 59.7784 79.4032 59.4527 79.2479 59.1875C79.0964 58.9223 78.8634 58.7216 78.549 58.5852C78.2384 58.4451 77.8464 58.375 77.3729 58.375H75.7138V68H73.2536ZM79.5376 62.7045L82.4297 68H79.7138L76.8842 62.7045H79.5376ZM94.4467 62.1818C94.4467 63.4508 94.2062 64.5303 93.7251 65.4205C93.2479 66.3106 92.5964 66.9905 91.7706 67.4602C90.9486 67.9261 90.0244 68.1591 88.9979 68.1591C87.9638 68.1591 87.0357 67.9242 86.2138 67.4545C85.3918 66.9848 84.7422 66.3049 84.2649 65.4148C83.7876 64.5246 83.549 63.447 83.549 62.1818C83.549 60.9129 83.7876 59.8333 84.2649 58.9432C84.7422 58.053 85.3918 57.375 86.2138 56.9091C87.0357 56.4394 87.9638 56.2045 88.9979 56.2045C90.0244 56.2045 90.9486 56.4394 91.7706 56.9091C92.5964 57.375 93.2479 58.053 93.7251 58.9432C94.2062 59.8333 94.4467 60.9129 94.4467 62.1818ZM91.9524 62.1818C91.9524 61.3598 91.8293 60.6667 91.5831 60.1023C91.3407 59.5379 90.9979 59.1098 90.5547 58.8182C90.1115 58.5265 89.5926 58.3807 88.9979 58.3807C88.4032 58.3807 87.8842 58.5265 87.4411 58.8182C86.9979 59.1098 86.6532 59.5379 86.407 60.1023C86.1645 60.6667 86.0433 61.3598 86.0433 62.1818C86.0433 63.0038 86.1645 63.697 86.407 64.2614C86.6532 64.8258 86.9979 65.2538 87.4411 65.5455C87.8842 65.8371 88.4032 65.983 88.9979 65.983C89.5926 65.983 90.1115 65.8371 90.5547 65.5455C90.9979 65.2538 91.3407 64.8258 91.5831 64.2614C91.8293 63.697 91.9524 63.0038 91.9524 62.1818ZM103.457 56.3636H105.917V63.9205C105.917 64.7689 105.714 65.5114 105.309 66.1477C104.907 66.7841 104.345 67.2803 103.621 67.6364C102.898 67.9886 102.055 68.1648 101.093 68.1648C100.127 68.1648 99.2824 67.9886 98.5589 67.6364C97.8355 67.2803 97.273 66.7841 96.8714 66.1477C96.4699 65.5114 96.2692 64.7689 96.2692 63.9205V56.3636H98.7294V63.7102C98.7294 64.1534 98.826 64.5473 99.0192 64.892C99.2161 65.2367 99.4927 65.5076 99.8487 65.7045C100.205 65.9015 100.62 66 101.093 66C101.57 66 101.985 65.9015 102.337 65.7045C102.693 65.5076 102.968 65.2367 103.161 64.892C103.358 64.5473 103.457 64.1534 103.457 63.7102V56.3636ZM117.674 56.3636V68H115.549L110.487 60.6761H110.401V68H107.941V56.3636H110.1L115.123 63.6818H115.225V56.3636H117.674ZM123.832 68H119.707V56.3636H123.866C125.036 56.3636 126.044 56.5966 126.888 57.0625C127.733 57.5246 128.383 58.1894 128.837 59.0568C129.296 59.9242 129.525 60.9621 129.525 62.1705C129.525 63.3826 129.296 64.4242 128.837 65.2955C128.383 66.1667 127.729 66.8352 126.877 67.3011C126.029 67.767 125.013 68 123.832 68ZM122.167 65.892H123.729C124.457 65.892 125.068 65.7633 125.565 65.5057C126.065 65.2443 126.44 64.8409 126.69 64.2955C126.943 63.7462 127.07 63.0379 127.07 62.1705C127.07 61.3106 126.943 60.608 126.69 60.0625C126.44 59.517 126.067 59.1155 125.57 58.858C125.074 58.6004 124.462 58.4716 123.735 58.4716H122.167V65.892ZM50.2138 75.3636V87H47.7536V75.3636H50.2138ZM52.2379 75.3636H55.272L58.4766 83.1818H58.6129L61.8175 75.3636H64.8516V87H62.4652V79.4261H62.3686L59.3572 86.9432H57.7322L54.7209 79.3977H54.6243V87H52.2379V75.3636ZM68.8842 87H66.2479L70.2649 75.3636H73.4354L77.4467 87H74.8104L71.8956 78.0227H71.8047L68.8842 87ZM68.7195 82.4261H74.9467V84.3466H68.7195V82.4261ZM86.0163 79.125C85.9368 78.8485 85.825 78.6042 85.6811 78.392C85.5372 78.1761 85.361 77.9943 85.1527 77.8466C84.9482 77.6951 84.7133 77.5795 84.4482 77.5C84.1868 77.4205 83.897 77.3807 83.5788 77.3807C82.9841 77.3807 82.4614 77.5284 82.0107 77.8239C81.5637 78.1193 81.2152 78.5492 80.9652 79.1136C80.7152 79.6742 80.5902 80.3598 80.5902 81.1705C80.5902 81.9811 80.7133 82.6705 80.9595 83.2386C81.2057 83.8068 81.5542 84.2405 82.005 84.5398C82.4557 84.8352 82.9879 84.983 83.6016 84.983C84.1584 84.983 84.6338 84.8845 85.0277 84.6875C85.4254 84.4867 85.7285 84.2045 85.9368 83.8409C86.1489 83.4773 86.255 83.0473 86.255 82.5511L86.755 82.625H83.755V80.7727H88.6243V82.2386C88.6243 83.2614 88.4084 84.1402 87.9766 84.875C87.5447 85.6061 86.95 86.1705 86.1925 86.5682C85.4349 86.9621 84.5675 87.1591 83.5902 87.1591C82.4993 87.1591 81.541 86.9186 80.7152 86.4375C79.8894 85.9527 79.2455 85.2652 78.7834 84.375C78.325 83.4811 78.0959 82.4205 78.0959 81.1932C78.0959 80.25 78.2322 79.4091 78.505 78.6705C78.7815 77.928 79.1679 77.2992 79.6641 76.7841C80.1603 76.2689 80.7379 75.8769 81.397 75.608C82.0561 75.339 82.7701 75.2045 83.5391 75.2045C84.1982 75.2045 84.8118 75.3011 85.38 75.4943C85.9482 75.6837 86.4519 75.9527 86.8913 76.3011C87.3345 76.6496 87.6963 77.0644 87.9766 77.5455C88.2569 78.0227 88.4368 78.5492 88.5163 79.125H86.0163ZM90.4723 87V75.3636H98.3132V77.392H92.9325V80.1648H97.9098V82.1932H92.9325V84.9716H98.3359V87H90.4723Z" fill="#8D8D8D"/>
<path d="M-0.317139 142.683L73 216M73 216L146.317 142.683M73 216L146.317 289.317M73 216L-0.317139 289.317" stroke="#8D8D8D" stroke-width="6"/>
<rect width="146.634" height="38" transform="translate(-0.317139 197)" fill="#E3E3E3"/>
<path d="M16.6754 212V200.364H21.3345C22.1906 200.364 22.9046 200.491 23.4766 200.744C24.0485 200.998 24.4785 201.35 24.7663 201.801C25.0542 202.248 25.1982 202.763 25.1982 203.347C25.1982 203.801 25.1072 204.201 24.9254 204.545C24.7436 204.886 24.4936 205.167 24.1754 205.386C23.861 205.602 23.5012 205.756 23.0959 205.847V205.96C23.5391 205.979 23.9538 206.104 24.3402 206.335C24.7304 206.566 25.0466 206.89 25.2891 207.307C25.5315 207.72 25.6527 208.212 25.6527 208.784C25.6527 209.402 25.4993 209.953 25.1925 210.438C24.8894 210.919 24.4406 211.299 23.8459 211.58C23.2512 211.86 22.5182 212 21.647 212H16.6754ZM19.1357 209.989H21.1413C21.8269 209.989 22.3269 209.858 22.6413 209.597C22.9557 209.331 23.1129 208.979 23.1129 208.54C23.1129 208.218 23.0353 207.934 22.88 207.688C22.7247 207.441 22.5031 207.248 22.2152 207.108C21.9311 206.968 21.5921 206.898 21.1982 206.898H19.1357V209.989ZM19.1357 205.233H20.9595C21.2966 205.233 21.5959 205.174 21.8572 205.057C22.1224 204.936 22.3307 204.765 22.4822 204.545C22.6375 204.326 22.7152 204.062 22.7152 203.756C22.7152 203.335 22.5656 202.996 22.2663 202.739C21.9709 202.481 21.5504 202.352 21.005 202.352H19.1357V205.233ZM29.2592 212H26.6229L30.6399 200.364H33.8104L37.8217 212H35.1854L32.2706 203.023H32.1797L29.2592 212ZM29.0945 207.426H35.3217V209.347H29.0945V207.426ZM48.9425 204.438H46.4538C46.4084 204.116 46.3156 203.83 46.1754 203.58C46.0353 203.326 45.8554 203.11 45.6357 202.932C45.416 202.754 45.1622 202.617 44.8743 202.523C44.5902 202.428 44.2815 202.381 43.9482 202.381C43.3459 202.381 42.8213 202.53 42.3743 202.83C41.9273 203.125 41.5807 203.557 41.3345 204.125C41.0883 204.689 40.9652 205.375 40.9652 206.182C40.9652 207.011 41.0883 207.708 41.3345 208.273C41.5845 208.837 41.933 209.263 42.38 209.551C42.8269 209.839 43.344 209.983 43.9311 209.983C44.2607 209.983 44.5656 209.939 44.8459 209.852C45.13 209.765 45.3819 209.638 45.6016 209.472C45.8213 209.301 46.0031 209.095 46.147 208.852C46.2947 208.61 46.397 208.333 46.4538 208.023L48.9425 208.034C48.8781 208.568 48.7171 209.083 48.4595 209.58C48.2057 210.072 47.8629 210.513 47.4311 210.903C47.0031 211.29 46.4917 211.597 45.897 211.824C45.3061 212.047 44.6375 212.159 43.8913 212.159C42.8535 212.159 41.9254 211.924 41.1072 211.455C40.2929 210.985 39.6489 210.305 39.1754 209.415C38.7057 208.525 38.4709 207.447 38.4709 206.182C38.4709 204.913 38.7095 203.833 39.1868 202.943C39.6641 202.053 40.3118 201.375 41.13 200.909C41.9482 200.439 42.8686 200.205 43.8913 200.205C44.5656 200.205 45.1906 200.299 45.7663 200.489C46.3459 200.678 46.8591 200.955 47.3061 201.318C47.7531 201.678 48.1167 202.119 48.397 202.642C48.6811 203.165 48.8629 203.763 48.9425 204.438ZM50.7067 212V200.364H53.1669V205.494H53.3203L57.5078 200.364H60.4567L56.1385 205.574L60.5078 212H57.5646L54.3771 207.216L53.1669 208.693V212H50.7067ZM68.7976 204.125C68.718 203.848 68.6063 203.604 68.4624 203.392C68.3184 203.176 68.1423 202.994 67.9339 202.847C67.7294 202.695 67.4946 202.58 67.2294 202.5C66.968 202.42 66.6783 202.381 66.3601 202.381C65.7654 202.381 65.2427 202.528 64.7919 202.824C64.3449 203.119 63.9964 203.549 63.7464 204.114C63.4964 204.674 63.3714 205.36 63.3714 206.17C63.3714 206.981 63.4946 207.67 63.7408 208.239C63.987 208.807 64.3355 209.241 64.7862 209.54C65.237 209.835 65.7692 209.983 66.3828 209.983C66.9396 209.983 67.415 209.884 67.8089 209.688C68.2067 209.487 68.5097 209.205 68.718 208.841C68.9302 208.477 69.0362 208.047 69.0362 207.551L69.5362 207.625H66.5362V205.773H71.4055V207.239C71.4055 208.261 71.1896 209.14 70.7578 209.875C70.326 210.606 69.7313 211.17 68.9737 211.568C68.2161 211.962 67.3487 212.159 66.3714 212.159C65.2805 212.159 64.3222 211.919 63.4964 211.438C62.6707 210.953 62.0268 210.265 61.5646 209.375C61.1063 208.481 60.8771 207.42 60.8771 206.193C60.8771 205.25 61.0135 204.409 61.2862 203.67C61.5627 202.928 61.9491 202.299 62.4453 201.784C62.9415 201.269 63.5192 200.877 64.1783 200.608C64.8374 200.339 65.5514 200.205 66.3203 200.205C66.9794 200.205 67.593 200.301 68.1612 200.494C68.7294 200.684 69.2332 200.953 69.6726 201.301C70.1158 201.65 70.4775 202.064 70.7578 202.545C71.0381 203.023 71.218 203.549 71.2976 204.125H68.7976ZM73.2536 212V200.364H77.8445C78.7232 200.364 79.4732 200.521 80.0945 200.835C80.7195 201.146 81.1948 201.587 81.5206 202.159C81.8501 202.727 82.0149 203.396 82.0149 204.165C82.0149 204.937 81.8482 205.602 81.5149 206.159C81.1816 206.712 80.6986 207.136 80.0661 207.432C79.4373 207.727 78.6759 207.875 77.782 207.875H74.7081V205.898H77.3842C77.8539 205.898 78.2441 205.833 78.5547 205.705C78.8653 205.576 79.0964 205.383 79.2479 205.125C79.4032 204.867 79.4808 204.547 79.4808 204.165C79.4808 203.778 79.4032 203.453 79.2479 203.188C79.0964 202.922 78.8634 202.722 78.549 202.585C78.2384 202.445 77.8464 202.375 77.3729 202.375H75.7138V212H73.2536ZM79.5376 206.705L82.4297 212H79.7138L76.8842 206.705H79.5376ZM94.4467 206.182C94.4467 207.451 94.2062 208.53 93.7251 209.42C93.2479 210.311 92.5964 210.991 91.7706 211.46C90.9486 211.926 90.0244 212.159 88.9979 212.159C87.9638 212.159 87.0357 211.924 86.2138 211.455C85.3918 210.985 84.7422 210.305 84.2649 209.415C83.7876 208.525 83.549 207.447 83.549 206.182C83.549 204.913 83.7876 203.833 84.2649 202.943C84.7422 202.053 85.3918 201.375 86.2138 200.909C87.0357 200.439 87.9638 200.205 88.9979 200.205C90.0244 200.205 90.9486 200.439 91.7706 200.909C92.5964 201.375 93.2479 202.053 93.7251 202.943C94.2062 203.833 94.4467 204.913 94.4467 206.182ZM91.9524 206.182C91.9524 205.36 91.8293 204.667 91.5831 204.102C91.3407 203.538 90.9979 203.11 90.5547 202.818C90.1115 202.527 89.5926 202.381 88.9979 202.381C88.4032 202.381 87.8842 202.527 87.4411 202.818C86.9979 203.11 86.6532 203.538 86.407 204.102C86.1645 204.667 86.0433 205.36 86.0433 206.182C86.0433 207.004 86.1645 207.697 86.407 208.261C86.6532 208.826 86.9979 209.254 87.4411 209.545C87.8842 209.837 88.4032 209.983 88.9979 209.983C89.5926 209.983 90.1115 209.837 90.5547 209.545C90.9979 209.254 91.3407 208.826 91.5831 208.261C91.8293 207.697 91.9524 207.004 91.9524 206.182ZM103.457 200.364H105.917V207.92C105.917 208.769 105.714 209.511 105.309 210.148C104.907 210.784 104.345 211.28 103.621 211.636C102.898 211.989 102.055 212.165 101.093 212.165C100.127 212.165 99.2824 211.989 98.5589 211.636C97.8355 211.28 97.273 210.784 96.8714 210.148C96.4699 209.511 96.2692 208.769 96.2692 207.92V200.364H98.7294V207.71C98.7294 208.153 98.826 208.547 99.0192 208.892C99.2161 209.237 99.4927 209.508 99.8487 209.705C100.205 209.902 100.62 210 101.093 210C101.57 210 101.985 209.902 102.337 209.705C102.693 209.508 102.968 209.237 103.161 208.892C103.358 208.547 103.457 208.153 103.457 207.71V200.364ZM117.674 200.364V212H115.549L110.487 204.676H110.401V212H107.941V200.364H110.1L115.123 207.682H115.225V200.364H117.674ZM123.832 212H119.707V200.364H123.866C125.036 200.364 126.044 200.597 126.888 201.062C127.733 201.525 128.383 202.189 128.837 203.057C129.296 203.924 129.525 204.962 129.525 206.17C129.525 207.383 129.296 208.424 128.837 209.295C128.383 210.167 127.729 210.835 126.877 211.301C126.029 211.767 125.013 212 123.832 212ZM122.167 209.892H123.729C124.457 209.892 125.068 209.763 125.565 209.506C126.065 209.244 126.44 208.841 126.69 208.295C126.943 207.746 127.07 207.038 127.07 206.17C127.07 205.311 126.943 204.608 126.69 204.062C126.44 203.517 126.067 203.116 125.57 202.858C125.074 202.6 124.462 202.472 123.735 202.472H122.167V209.892ZM50.2138 219.364V231H47.7536V219.364H50.2138ZM52.2379 219.364H55.272L58.4766 227.182H58.6129L61.8175 219.364H64.8516V231H62.4652V223.426H62.3686L59.3572 230.943H57.7322L54.7209 223.398H54.6243V231H52.2379V219.364ZM68.8842 231H66.2479L70.2649 219.364H73.4354L77.4467 231H74.8104L71.8956 222.023H71.8047L68.8842 231ZM68.7195 226.426H74.9467V228.347H68.7195V226.426ZM86.0163 223.125C85.9368 222.848 85.825 222.604 85.6811 222.392C85.5372 222.176 85.361 221.994 85.1527 221.847C84.9482 221.695 84.7133 221.58 84.4482 221.5C84.1868 221.42 83.897 221.381 83.5788 221.381C82.9841 221.381 82.4614 221.528 82.0107 221.824C81.5637 222.119 81.2152 222.549 80.9652 223.114C80.7152 223.674 80.5902 224.36 80.5902 225.17C80.5902 225.981 80.7133 226.67 80.9595 227.239C81.2057 227.807 81.5542 228.241 82.005 228.54C82.4557 228.835 82.9879 228.983 83.6016 228.983C84.1584 228.983 84.6338 228.884 85.0277 228.688C85.4254 228.487 85.7285 228.205 85.9368 227.841C86.1489 227.477 86.255 227.047 86.255 226.551L86.755 226.625H83.755V224.773H88.6243V226.239C88.6243 227.261 88.4084 228.14 87.9766 228.875C87.5447 229.606 86.95 230.17 86.1925 230.568C85.4349 230.962 84.5675 231.159 83.5902 231.159C82.4993 231.159 81.541 230.919 80.7152 230.438C79.8894 229.953 79.2455 229.265 78.7834 228.375C78.325 227.481 78.0959 226.42 78.0959 225.193C78.0959 224.25 78.2322 223.409 78.505 222.67C78.7815 221.928 79.1679 221.299 79.6641 220.784C80.1603 220.269 80.7379 219.877 81.397 219.608C82.0561 219.339 82.7701 219.205 83.5391 219.205C84.1982 219.205 84.8118 219.301 85.38 219.494C85.9482 219.684 86.4519 219.953 86.8913 220.301C87.3345 220.65 87.6963 221.064 87.9766 221.545C88.2569 222.023 88.4368 222.549 88.5163 223.125H86.0163ZM90.4723 231V219.364H98.3132V221.392H92.9325V224.165H97.9098V226.193H92.9325V228.972H98.3359V231H90.4723Z" fill="#8D8D8D"/>
<path d="M143.683 -1.31738L217 71.9998M217 71.9998L290.317 -1.31738M217 71.9998L290.317 145.317M217 71.9998L143.683 145.317" stroke="#8D8D8D" stroke-width="6"/>
<rect width="146.634" height="38" transform="translate(143.683 53)" fill="#E3E3E3"/>
<path d="M160.675 68V56.3636H165.335C166.191 56.3636 166.905 56.4905 167.477 56.7443C168.049 56.9981 168.478 57.3504 168.766 57.8011C169.054 58.2481 169.198 58.7633 169.198 59.3466C169.198 59.8011 169.107 60.2008 168.925 60.5455C168.744 60.8864 168.494 61.1667 168.175 61.3864C167.861 61.6023 167.501 61.7557 167.096 61.8466V61.9602C167.539 61.9792 167.954 62.1042 168.34 62.3352C168.73 62.5663 169.047 62.8902 169.289 63.3068C169.531 63.7197 169.653 64.2121 169.653 64.7841C169.653 65.4015 169.499 65.9527 169.192 66.4375C168.889 66.9186 168.441 67.2992 167.846 67.5795C167.251 67.8598 166.518 68 165.647 68H160.675ZM163.136 65.9886H165.141C165.827 65.9886 166.327 65.858 166.641 65.5966C166.956 65.3314 167.113 64.9792 167.113 64.5398C167.113 64.2178 167.035 63.9337 166.88 63.6875C166.725 63.4413 166.503 63.2481 166.215 63.108C165.931 62.9678 165.592 62.8977 165.198 62.8977H163.136V65.9886ZM163.136 61.233H164.96C165.297 61.233 165.596 61.1742 165.857 61.0568C166.122 60.9356 166.331 60.7652 166.482 60.5455C166.638 60.3258 166.715 60.0625 166.715 59.7557C166.715 59.3352 166.566 58.9962 166.266 58.7386C165.971 58.4811 165.55 58.3523 165.005 58.3523H163.136V61.233ZM173.259 68H170.623L174.64 56.3636H177.81L181.822 68H179.185L176.271 59.0227H176.18L173.259 68ZM173.094 63.4261H179.322V65.3466H173.094V63.4261ZM192.942 60.4375H190.454C190.408 60.1155 190.316 59.8295 190.175 59.5795C190.035 59.3258 189.855 59.1098 189.636 58.9318C189.416 58.7538 189.162 58.6174 188.874 58.5227C188.59 58.428 188.281 58.3807 187.948 58.3807C187.346 58.3807 186.821 58.5303 186.374 58.8295C185.927 59.125 185.581 59.5568 185.335 60.125C185.088 60.6894 184.965 61.375 184.965 62.1818C184.965 63.0114 185.088 63.7083 185.335 64.2727C185.585 64.8371 185.933 65.2633 186.38 65.5511C186.827 65.839 187.344 65.983 187.931 65.983C188.261 65.983 188.566 65.9394 188.846 65.8523C189.13 65.7652 189.382 65.6383 189.602 65.4716C189.821 65.3011 190.003 65.0947 190.147 64.8523C190.295 64.6098 190.397 64.3333 190.454 64.0227L192.942 64.0341C192.878 64.5682 192.717 65.0833 192.46 65.5795C192.206 66.072 191.863 66.5133 191.431 66.9034C191.003 67.2898 190.492 67.5966 189.897 67.8239C189.306 68.0473 188.638 68.1591 187.891 68.1591C186.853 68.1591 185.925 67.9242 185.107 67.4545C184.293 66.9848 183.649 66.3049 183.175 65.4148C182.706 64.5246 182.471 63.447 182.471 62.1818C182.471 60.9129 182.71 59.8333 183.187 58.9432C183.664 58.053 184.312 57.375 185.13 56.9091C185.948 56.4394 186.869 56.2045 187.891 56.2045C188.566 56.2045 189.191 56.2992 189.766 56.4886C190.346 56.678 190.859 56.9545 191.306 57.3182C191.753 57.678 192.117 58.1193 192.397 58.642C192.681 59.1648 192.863 59.7633 192.942 60.4375ZM194.707 68V56.3636H197.167V61.4943H197.32L201.508 56.3636H204.457L200.138 61.5739L204.508 68H201.565L198.377 63.2159L197.167 64.6932V68H194.707ZM212.798 60.125C212.718 59.8485 212.606 59.6042 212.462 59.392C212.318 59.1761 212.142 58.9943 211.934 58.8466C211.729 58.6951 211.495 58.5795 211.229 58.5C210.968 58.4205 210.678 58.3807 210.36 58.3807C209.765 58.3807 209.243 58.5284 208.792 58.8239C208.345 59.1193 207.996 59.5492 207.746 60.1136C207.496 60.6742 207.371 61.3598 207.371 62.1705C207.371 62.9811 207.495 63.6705 207.741 64.2386C207.987 64.8068 208.335 65.2405 208.786 65.5398C209.237 65.8352 209.769 65.983 210.383 65.983C210.94 65.983 211.415 65.8845 211.809 65.6875C212.207 65.4867 212.51 65.2045 212.718 64.8409C212.93 64.4773 213.036 64.0473 213.036 63.5511L213.536 63.625H210.536V61.7727H215.406V63.2386C215.406 64.2614 215.19 65.1402 214.758 65.875C214.326 66.6061 213.731 67.1705 212.974 67.5682C212.216 67.9621 211.349 68.1591 210.371 68.1591C209.281 68.1591 208.322 67.9186 207.496 67.4375C206.671 66.9527 206.027 66.2652 205.565 65.375C205.106 64.4811 204.877 63.4205 204.877 62.1932C204.877 61.25 205.013 60.4091 205.286 59.6705C205.563 58.928 205.949 58.2992 206.445 57.7841C206.942 57.2689 207.519 56.8769 208.178 56.608C208.837 56.339 209.551 56.2045 210.32 56.2045C210.979 56.2045 211.593 56.3011 212.161 56.4943C212.729 56.6837 213.233 56.9527 213.673 57.3011C214.116 57.6496 214.478 58.0644 214.758 58.5455C215.038 59.0227 215.218 59.5492 215.298 60.125H212.798ZM217.254 68V56.3636H221.844C222.723 56.3636 223.473 56.5208 224.094 56.8352C224.719 57.1458 225.195 57.5871 225.521 58.1591C225.85 58.7273 226.015 59.3958 226.015 60.1648C226.015 60.9375 225.848 61.6023 225.515 62.1591C225.182 62.7121 224.699 63.1364 224.066 63.4318C223.437 63.7273 222.676 63.875 221.782 63.875H218.708V61.8977H221.384C221.854 61.8977 222.244 61.8333 222.555 61.7045C222.865 61.5758 223.096 61.3826 223.248 61.125C223.403 60.8674 223.481 60.5473 223.481 60.1648C223.481 59.7784 223.403 59.4527 223.248 59.1875C223.096 58.9223 222.863 58.7216 222.549 58.5852C222.238 58.4451 221.846 58.375 221.373 58.375H219.714V68H217.254ZM223.538 62.7045L226.43 68H223.714L220.884 62.7045H223.538ZM238.447 62.1818C238.447 63.4508 238.206 64.5303 237.725 65.4205C237.248 66.3106 236.596 66.9905 235.771 67.4602C234.949 67.9261 234.024 68.1591 232.998 68.1591C231.964 68.1591 231.036 67.9242 230.214 67.4545C229.392 66.9848 228.742 66.3049 228.265 65.4148C227.788 64.5246 227.549 63.447 227.549 62.1818C227.549 60.9129 227.788 59.8333 228.265 58.9432C228.742 58.053 229.392 57.375 230.214 56.9091C231.036 56.4394 231.964 56.2045 232.998 56.2045C234.024 56.2045 234.949 56.4394 235.771 56.9091C236.596 57.375 237.248 58.053 237.725 58.9432C238.206 59.8333 238.447 60.9129 238.447 62.1818ZM235.952 62.1818C235.952 61.3598 235.829 60.6667 235.583 60.1023C235.341 59.5379 234.998 59.1098 234.555 58.8182C234.112 58.5265 233.593 58.3807 232.998 58.3807C232.403 58.3807 231.884 58.5265 231.441 58.8182C230.998 59.1098 230.653 59.5379 230.407 60.1023C230.165 60.6667 230.043 61.3598 230.043 62.1818C230.043 63.0038 230.165 63.697 230.407 64.2614C230.653 64.8258 230.998 65.2538 231.441 65.5455C231.884 65.8371 232.403 65.983 232.998 65.983C233.593 65.983 234.112 65.8371 234.555 65.5455C234.998 65.2538 235.341 64.8258 235.583 64.2614C235.829 63.697 235.952 63.0038 235.952 62.1818ZM247.457 56.3636H249.917V63.9205C249.917 64.7689 249.714 65.5114 249.309 66.1477C248.907 66.7841 248.345 67.2803 247.621 67.6364C246.898 67.9886 246.055 68.1648 245.093 68.1648C244.127 68.1648 243.282 67.9886 242.559 67.6364C241.835 67.2803 241.273 66.7841 240.871 66.1477C240.47 65.5114 240.269 64.7689 240.269 63.9205V56.3636H242.729V63.7102C242.729 64.1534 242.826 64.5473 243.019 64.892C243.216 65.2367 243.493 65.5076 243.849 65.7045C244.205 65.9015 244.62 66 245.093 66C245.57 66 245.985 65.9015 246.337 65.7045C246.693 65.5076 246.968 65.2367 247.161 64.892C247.358 64.5473 247.457 64.1534 247.457 63.7102V56.3636ZM261.674 56.3636V68H259.549L254.487 60.6761H254.401V68H251.941V56.3636H254.1L259.123 63.6818H259.225V56.3636H261.674ZM267.832 68H263.707V56.3636H267.866C269.036 56.3636 270.044 56.5966 270.888 57.0625C271.733 57.5246 272.383 58.1894 272.837 59.0568C273.296 59.9242 273.525 60.9621 273.525 62.1705C273.525 63.3826 273.296 64.4242 272.837 65.2955C272.383 66.1667 271.729 66.8352 270.877 67.3011C270.029 67.767 269.013 68 267.832 68ZM266.167 65.892H267.729C268.457 65.892 269.068 65.7633 269.565 65.5057C270.065 65.2443 270.44 64.8409 270.69 64.2955C270.943 63.7462 271.07 63.0379 271.07 62.1705C271.07 61.3106 270.943 60.608 270.69 60.0625C270.44 59.517 270.067 59.1155 269.57 58.858C269.074 58.6004 268.462 58.4716 267.735 58.4716H266.167V65.892ZM194.214 75.3636V87H191.754V75.3636H194.214ZM196.238 75.3636H199.272L202.477 83.1818H202.613L205.817 75.3636H208.852V87H206.465V79.4261H206.369L203.357 86.9432H201.732L198.721 79.3977H198.624V87H196.238V75.3636ZM212.884 87H210.248L214.265 75.3636H217.435L221.447 87H218.81L215.896 78.0227H215.805L212.884 87ZM212.719 82.4261H218.947V84.3466H212.719V82.4261ZM230.016 79.125C229.937 78.8485 229.825 78.6042 229.681 78.392C229.537 78.1761 229.361 77.9943 229.153 77.8466C228.948 77.6951 228.713 77.5795 228.448 77.5C228.187 77.4205 227.897 77.3807 227.579 77.3807C226.984 77.3807 226.461 77.5284 226.011 77.8239C225.564 78.1193 225.215 78.5492 224.965 79.1136C224.715 79.6742 224.59 80.3598 224.59 81.1705C224.59 81.9811 224.713 82.6705 224.96 83.2386C225.206 83.8068 225.554 84.2405 226.005 84.5398C226.456 84.8352 226.988 84.983 227.602 84.983C228.158 84.983 228.634 84.8845 229.028 84.6875C229.425 84.4867 229.728 84.2045 229.937 83.8409C230.149 83.4773 230.255 83.0473 230.255 82.5511L230.755 82.625H227.755V80.7727H232.624V82.2386C232.624 83.2614 232.408 84.1402 231.977 84.875C231.545 85.6061 230.95 86.1705 230.192 86.5682C229.435 86.9621 228.567 87.1591 227.59 87.1591C226.499 87.1591 225.541 86.9186 224.715 86.4375C223.889 85.9527 223.246 85.2652 222.783 84.375C222.325 83.4811 222.096 82.4205 222.096 81.1932C222.096 80.25 222.232 79.4091 222.505 78.6705C222.781 77.928 223.168 77.2992 223.664 76.7841C224.16 76.2689 224.738 75.8769 225.397 75.608C226.056 75.339 226.77 75.2045 227.539 75.2045C228.198 75.2045 228.812 75.3011 229.38 75.4943C229.948 75.6837 230.452 75.9527 230.891 76.3011C231.335 76.6496 231.696 77.0644 231.977 77.5455C232.257 78.0227 232.437 78.5492 232.516 79.125H230.016ZM234.472 87V75.3636H242.313V77.392H236.933V80.1648H241.91V82.1932H236.933V84.9716H242.336V87H234.472Z" fill="#8D8D8D"/>
<path d="M143.683 142.683L217 216M217 216L290.317 142.683M217 216L290.317 289.317M217 216L143.683 289.317" stroke="#8D8D8D" stroke-width="6"/>
<rect width="146.634" height="38" transform="translate(143.683 197)" fill="#E3E3E3"/>
<path d="M160.675 212V200.364H165.335C166.191 200.364 166.905 200.491 167.477 200.744C168.049 200.998 168.478 201.35 168.766 201.801C169.054 202.248 169.198 202.763 169.198 203.347C169.198 203.801 169.107 204.201 168.925 204.545C168.744 204.886 168.494 205.167 168.175 205.386C167.861 205.602 167.501 205.756 167.096 205.847V205.96C167.539 205.979 167.954 206.104 168.34 206.335C168.73 206.566 169.047 206.89 169.289 207.307C169.531 207.72 169.653 208.212 169.653 208.784C169.653 209.402 169.499 209.953 169.192 210.438C168.889 210.919 168.441 211.299 167.846 211.58C167.251 211.86 166.518 212 165.647 212H160.675ZM163.136 209.989H165.141C165.827 209.989 166.327 209.858 166.641 209.597C166.956 209.331 167.113 208.979 167.113 208.54C167.113 208.218 167.035 207.934 166.88 207.688C166.725 207.441 166.503 207.248 166.215 207.108C165.931 206.968 165.592 206.898 165.198 206.898H163.136V209.989ZM163.136 205.233H164.96C165.297 205.233 165.596 205.174 165.857 205.057C166.122 204.936 166.331 204.765 166.482 204.545C166.638 204.326 166.715 204.062 166.715 203.756C166.715 203.335 166.566 202.996 166.266 202.739C165.971 202.481 165.55 202.352 165.005 202.352H163.136V205.233ZM173.259 212H170.623L174.64 200.364H177.81L181.822 212H179.185L176.271 203.023H176.18L173.259 212ZM173.094 207.426H179.322V209.347H173.094V207.426ZM192.942 204.438H190.454C190.408 204.116 190.316 203.83 190.175 203.58C190.035 203.326 189.855 203.11 189.636 202.932C189.416 202.754 189.162 202.617 188.874 202.523C188.59 202.428 188.281 202.381 187.948 202.381C187.346 202.381 186.821 202.53 186.374 202.83C185.927 203.125 185.581 203.557 185.335 204.125C185.088 204.689 184.965 205.375 184.965 206.182C184.965 207.011 185.088 207.708 185.335 208.273C185.585 208.837 185.933 209.263 186.38 209.551C186.827 209.839 187.344 209.983 187.931 209.983C188.261 209.983 188.566 209.939 188.846 209.852C189.13 209.765 189.382 209.638 189.602 209.472C189.821 209.301 190.003 209.095 190.147 208.852C190.295 208.61 190.397 208.333 190.454 208.023L192.942 208.034C192.878 208.568 192.717 209.083 192.46 209.58C192.206 210.072 191.863 210.513 191.431 210.903C191.003 211.29 190.492 211.597 189.897 211.824C189.306 212.047 188.638 212.159 187.891 212.159C186.853 212.159 185.925 211.924 185.107 211.455C184.293 210.985 183.649 210.305 183.175 209.415C182.706 208.525 182.471 207.447 182.471 206.182C182.471 204.913 182.71 203.833 183.187 202.943C183.664 202.053 184.312 201.375 185.13 200.909C185.948 200.439 186.869 200.205 187.891 200.205C188.566 200.205 189.191 200.299 189.766 200.489C190.346 200.678 190.859 200.955 191.306 201.318C191.753 201.678 192.117 202.119 192.397 202.642C192.681 203.165 192.863 203.763 192.942 204.438ZM194.707 212V200.364H197.167V205.494H197.32L201.508 200.364H204.457L200.138 205.574L204.508 212H201.565L198.377 207.216L197.167 208.693V212H194.707ZM212.798 204.125C212.718 203.848 212.606 203.604 212.462 203.392C212.318 203.176 212.142 202.994 211.934 202.847C211.729 202.695 211.495 202.58 211.229 202.5C210.968 202.42 210.678 202.381 210.36 202.381C209.765 202.381 209.243 202.528 208.792 202.824C208.345 203.119 207.996 203.549 207.746 204.114C207.496 204.674 207.371 205.36 207.371 206.17C207.371 206.981 207.495 207.67 207.741 208.239C207.987 208.807 208.335 209.241 208.786 209.54C209.237 209.835 209.769 209.983 210.383 209.983C210.94 209.983 211.415 209.884 211.809 209.688C212.207 209.487 212.51 209.205 212.718 208.841C212.93 208.477 213.036 208.047 213.036 207.551L213.536 207.625H210.536V205.773H215.406V207.239C215.406 208.261 215.19 209.14 214.758 209.875C214.326 210.606 213.731 211.17 212.974 211.568C212.216 211.962 211.349 212.159 210.371 212.159C209.281 212.159 208.322 211.919 207.496 211.438C206.671 210.953 206.027 210.265 205.565 209.375C205.106 208.481 204.877 207.42 204.877 206.193C204.877 205.25 205.013 204.409 205.286 203.67C205.563 202.928 205.949 202.299 206.445 201.784C206.942 201.269 207.519 200.877 208.178 200.608C208.837 200.339 209.551 200.205 210.32 200.205C210.979 200.205 211.593 200.301 212.161 200.494C212.729 200.684 213.233 200.953 213.673 201.301C214.116 201.65 214.478 202.064 214.758 202.545C215.038 203.023 215.218 203.549 215.298 204.125H212.798ZM217.254 212V200.364H221.844C222.723 200.364 223.473 200.521 224.094 200.835C224.719 201.146 225.195 201.587 225.521 202.159C225.85 202.727 226.015 203.396 226.015 204.165C226.015 204.937 225.848 205.602 225.515 206.159C225.182 206.712 224.699 207.136 224.066 207.432C223.437 207.727 222.676 207.875 221.782 207.875H218.708V205.898H221.384C221.854 205.898 222.244 205.833 222.555 205.705C222.865 205.576 223.096 205.383 223.248 205.125C223.403 204.867 223.481 204.547 223.481 204.165C223.481 203.778 223.403 203.453 223.248 203.188C223.096 202.922 222.863 202.722 222.549 202.585C222.238 202.445 221.846 202.375 221.373 202.375H219.714V212H217.254ZM223.538 206.705L226.43 212H223.714L220.884 206.705H223.538ZM238.447 206.182C238.447 207.451 238.206 208.53 237.725 209.42C237.248 210.311 236.596 210.991 235.771 211.46C234.949 211.926 234.024 212.159 232.998 212.159C231.964 212.159 231.036 211.924 230.214 211.455C229.392 210.985 228.742 210.305 228.265 209.415C227.788 208.525 227.549 207.447 227.549 206.182C227.549 204.913 227.788 203.833 228.265 202.943C228.742 202.053 229.392 201.375 230.214 200.909C231.036 200.439 231.964 200.205 232.998 200.205C234.024 200.205 234.949 200.439 235.771 200.909C236.596 201.375 237.248 202.053 237.725 202.943C238.206 203.833 238.447 204.913 238.447 206.182ZM235.952 206.182C235.952 205.36 235.829 204.667 235.583 204.102C235.341 203.538 234.998 203.11 234.555 202.818C234.112 202.527 233.593 202.381 232.998 202.381C232.403 202.381 231.884 202.527 231.441 202.818C230.998 203.11 230.653 203.538 230.407 204.102C230.165 204.667 230.043 205.36 230.043 206.182C230.043 207.004 230.165 207.697 230.407 208.261C230.653 208.826 230.998 209.254 231.441 209.545C231.884 209.837 232.403 209.983 232.998 209.983C233.593 209.983 234.112 209.837 234.555 209.545C234.998 209.254 235.341 208.826 235.583 208.261C235.829 207.697 235.952 207.004 235.952 206.182ZM247.457 200.364H249.917V207.92C249.917 208.769 249.714 209.511 249.309 210.148C248.907 210.784 248.345 211.28 247.621 211.636C246.898 211.989 246.055 212.165 245.093 212.165C244.127 212.165 243.282 211.989 242.559 211.636C241.835 211.28 241.273 210.784 240.871 210.148C240.47 209.511 240.269 208.769 240.269 207.92V200.364H242.729V207.71C242.729 208.153 242.826 208.547 243.019 208.892C243.216 209.237 243.493 209.508 243.849 209.705C244.205 209.902 244.62 210 245.093 210C245.57 210 245.985 209.902 246.337 209.705C246.693 209.508 246.968 209.237 247.161 208.892C247.358 208.547 247.457 208.153 247.457 207.71V200.364ZM261.674 200.364V212H259.549L254.487 204.676H254.401V212H251.941V200.364H254.1L259.123 207.682H259.225V200.364H261.674ZM267.832 212H263.707V200.364H267.866C269.036 200.364 270.044 200.597 270.888 201.062C271.733 201.525 272.383 202.189 272.837 203.057C273.296 203.924 273.525 204.962 273.525 206.17C273.525 207.383 273.296 208.424 272.837 209.295C272.383 210.167 271.729 210.835 270.877 211.301C270.029 211.767 269.013 212 267.832 212ZM266.167 209.892H267.729C268.457 209.892 269.068 209.763 269.565 209.506C270.065 209.244 270.44 208.841 270.69 208.295C270.943 207.746 271.07 207.038 271.07 206.17C271.07 205.311 270.943 204.608 270.69 204.062C270.44 203.517 270.067 203.116 269.57 202.858C269.074 202.6 268.462 202.472 267.735 202.472H266.167V209.892ZM194.214 219.364V231H191.754V219.364H194.214ZM196.238 219.364H199.272L202.477 227.182H202.613L205.817 219.364H208.852V231H206.465V223.426H206.369L203.357 230.943H201.732L198.721 223.398H198.624V231H196.238V219.364ZM212.884 231H210.248L214.265 219.364H217.435L221.447 231H218.81L215.896 222.023H215.805L212.884 231ZM212.719 226.426H218.947V228.347H212.719V226.426ZM230.016 223.125C229.937 222.848 229.825 222.604 229.681 222.392C229.537 222.176 229.361 221.994 229.153 221.847C228.948 221.695 228.713 221.58 228.448 221.5C228.187 221.42 227.897 221.381 227.579 221.381C226.984 221.381 226.461 221.528 226.011 221.824C225.564 222.119 225.215 222.549 224.965 223.114C224.715 223.674 224.59 224.36 224.59 225.17C224.59 225.981 224.713 226.67 224.96 227.239C225.206 227.807 225.554 228.241 226.005 228.54C226.456 228.835 226.988 228.983 227.602 228.983C228.158 228.983 228.634 228.884 229.028 228.688C229.425 228.487 229.728 228.205 229.937 227.841C230.149 227.477 230.255 227.047 230.255 226.551L230.755 226.625H227.755V224.773H232.624V226.239C232.624 227.261 232.408 228.14 231.977 228.875C231.545 229.606 230.95 230.17 230.192 230.568C229.435 230.962 228.567 231.159 227.59 231.159C226.499 231.159 225.541 230.919 224.715 230.438C223.889 229.953 223.246 229.265 222.783 228.375C222.325 227.481 222.096 226.42 222.096 225.193C222.096 224.25 222.232 223.409 222.505 222.67C222.781 221.928 223.168 221.299 223.664 220.784C224.16 220.269 224.738 219.877 225.397 219.608C226.056 219.339 226.77 219.205 227.539 219.205C228.198 219.205 228.812 219.301 229.38 219.494C229.948 219.684 230.452 219.953 230.891 220.301C231.335 220.65 231.696 221.064 231.977 221.545C232.257 222.023 232.437 222.549 232.516 223.125H230.016ZM234.472 231V219.364H242.313V221.392H236.933V224.165H241.91V226.193H236.933V228.972H242.336V231H234.472Z" fill="#8D8D8D"/>
</g>
<defs>
<clipPath id="clip0_409_3934">
<rect width="290" height="288" fill="white"/>
</clipPath>
</defs>
</svg>
